<?xml version="1.0" encoding="utf-8"?>
<!-- Generator: Adobe Illustrator 25.4.1, SVG Export Plug-In . SVG Version: 6.00 Build 0)  -->
<svg version="1.1" id="Layer_1" xmlns="http://www.w3.org/2000/svg" xmlns:xlink="http://www.w3.org/1999/xlink" x="0px" y="0px"
	 viewBox="0 0 24 24" style="enable-background:new 0 0 24 24;" xml:space="preserve">
<style type="text/css">
	.st0{fill:none;stroke:#2B2B2B;stroke-width:1.25;stroke-miterlimit:10;}
	.st1{fill:#2B2B2B;}
</style>
<path class="st0" d="M13,22.2H3.8c-1,0-1.9-0.8-1.9-1.9V3.8c0-1,0.8-1.9,1.9-1.9H13c1,0,1.9,0.8,1.9,1.9v16.5
	C14.9,21.3,14,22.2,13,22.2z"/>
<g>
	<path class="st1" d="M11.1,11.6H5.7c-0.2,0-0.4-0.2-0.4-0.5c0-0.3,0.2-0.5,0.4-0.5h5.4c0.2,0,0.4,0.2,0.4,0.5
		C11.4,11.4,11.3,11.6,11.1,11.6z"/>
</g>
<g>
	<path class="st1" d="M11.1,15.5H5.7c-0.2,0-0.4-0.2-0.4-0.5c0-0.3,0.2-0.5,0.4-0.5h5.4c0.2,0,0.4,0.2,0.4,0.5
		C11.4,15.2,11.3,15.5,11.1,15.5z"/>
</g>
<g>
	<path class="st1" d="M11.1,19.3H5.7c-0.2,0-0.4-0.2-0.4-0.5c0-0.3,0.2-0.5,0.4-0.5h5.4c0.2,0,0.4,0.2,0.4,0.5
		C11.4,19.1,11.3,19.3,11.1,19.3z"/>
</g>
<ellipse class="st1" cx="8.4" cy="6" rx="1.7" ry="1.7"/>
<path class="st0" d="M20.5,22.2h-3.7c-1,0-1.8-0.8-1.8-1.9V10c0-1,0.8-1.9,1.8-1.9h3.7c1,0,1.8,0.8,1.8,1.9v10.4
	C22.3,21.4,21.5,22.2,20.5,22.2z"/>
<g>
	<g>
		<path class="st1" d="M19.6,17.4h-2c-0.3,0-0.5-0.2-0.5-0.5s0.2-0.5,0.5-0.5h2c0.3,0,0.5,0.2,0.5,0.5S19.9,17.4,19.6,17.4z"/>
	</g>
</g>
<ellipse class="st1" cx="18.6" cy="12.4" rx="1.3" ry="1.3"/>
</svg>
